<mxfile host="app.diagrams.net" modified="2023-09-24T15:16:18.467Z" agent="Mozilla/5.0 (Windows NT 10.0; Win64; x64) AppleWebKit/537.36 (KHTML, like Gecko) Chrome/116.0.0.0 Safari/537.36" etag="MkZlfKVq-c3PgsEkCXj0" version="21.8.2" type="github">
  <diagram name="第 1 页" id="Q7SS0ckkUcSd-P_3bl_g">
    <mxGraphModel dx="1114" dy="578" grid="0" gridSize="10" guides="1" tooltips="1" connect="1" arrows="1" fold="1" page="1" pageScale="1" pageWidth="827" pageHeight="1169" background="none" math="0" shadow="0">
      <root>
        <mxCell id="0" />
        <mxCell id="1" parent="0" />
        <mxCell id="MLBCKs6qhWt3k2Kgl3a6-28" style="edgeStyle=orthogonalEdgeStyle;rounded=0;orthogonalLoop=1;jettySize=auto;html=1;exitX=0.25;exitY=1;exitDx=0;exitDy=0;entryX=0.25;entryY=0;entryDx=0;entryDy=0;fontSize=12;" edge="1" parent="1" source="MLBCKs6qhWt3k2Kgl3a6-23" target="Rtw2Mw8w-L1hEYjC5oc2-6">
          <mxGeometry relative="1" as="geometry" />
        </mxCell>
        <mxCell id="MLBCKs6qhWt3k2Kgl3a6-37" value="&lt;font style=&quot;font-size: 18px;&quot;&gt;Request&lt;/font&gt;" style="edgeLabel;html=1;align=center;verticalAlign=middle;resizable=0;points=[];" vertex="1" connectable="0" parent="MLBCKs6qhWt3k2Kgl3a6-28">
          <mxGeometry x="-0.2603" y="-1" relative="1" as="geometry">
            <mxPoint as="offset" />
          </mxGeometry>
        </mxCell>
        <mxCell id="MLBCKs6qhWt3k2Kgl3a6-23" value="&lt;font style=&quot;font-size: 24px;&quot;&gt;Client&lt;/font&gt;" style="rounded=0;whiteSpace=wrap;html=1;verticalAlign=top;align=center;" vertex="1" parent="1">
          <mxGeometry x="84" y="35" width="659" height="122" as="geometry" />
        </mxCell>
        <mxCell id="MLBCKs6qhWt3k2Kgl3a6-29" style="edgeStyle=orthogonalEdgeStyle;rounded=0;orthogonalLoop=1;jettySize=auto;html=1;exitX=0.75;exitY=0;exitDx=0;exitDy=0;entryX=0.75;entryY=1;entryDx=0;entryDy=0;" edge="1" parent="1" source="Rtw2Mw8w-L1hEYjC5oc2-6" target="MLBCKs6qhWt3k2Kgl3a6-23">
          <mxGeometry relative="1" as="geometry" />
        </mxCell>
        <mxCell id="MLBCKs6qhWt3k2Kgl3a6-38" value="&lt;font style=&quot;font-size: 18px;&quot;&gt;Response&lt;/font&gt;" style="edgeLabel;html=1;align=center;verticalAlign=middle;resizable=0;points=[];" vertex="1" connectable="0" parent="MLBCKs6qhWt3k2Kgl3a6-29">
          <mxGeometry x="-0.1293" y="-2" relative="1" as="geometry">
            <mxPoint x="1" as="offset" />
          </mxGeometry>
        </mxCell>
        <mxCell id="Rtw2Mw8w-L1hEYjC5oc2-6" value="&lt;h1 style=&quot;font-size: 24px;&quot;&gt;Server&lt;/h1&gt;" style="rounded=0;whiteSpace=wrap;html=1;align=center;verticalAlign=top;" parent="1" vertex="1">
          <mxGeometry x="85.5" y="232" width="656" height="394" as="geometry" />
        </mxCell>
        <mxCell id="Rtw2Mw8w-L1hEYjC5oc2-21" value="&lt;font style=&quot;font-size: 18px;&quot;&gt;Docker&lt;/font&gt;" style="rounded=0;whiteSpace=wrap;html=1;strokeWidth=2;verticalAlign=top;" parent="1" vertex="1">
          <mxGeometry x="95" y="289" width="628.5" height="327" as="geometry" />
        </mxCell>
        <mxCell id="MLBCKs6qhWt3k2Kgl3a6-5" style="edgeStyle=orthogonalEdgeStyle;rounded=0;orthogonalLoop=1;jettySize=auto;html=1;exitX=0.119;exitY=1.033;exitDx=0;exitDy=0;entryX=0.25;entryY=0;entryDx=0;entryDy=0;exitPerimeter=0;" edge="1" parent="1" source="Rtw2Mw8w-L1hEYjC5oc2-10" target="Rtw2Mw8w-L1hEYjC5oc2-12">
          <mxGeometry relative="1" as="geometry" />
        </mxCell>
        <mxCell id="MLBCKs6qhWt3k2Kgl3a6-22" style="edgeStyle=orthogonalEdgeStyle;rounded=0;orthogonalLoop=1;jettySize=auto;html=1;exitX=0.75;exitY=1;exitDx=0;exitDy=0;entryX=0.75;entryY=0;entryDx=0;entryDy=0;" edge="1" parent="1" source="Rtw2Mw8w-L1hEYjC5oc2-10" target="Rtw2Mw8w-L1hEYjC5oc2-11">
          <mxGeometry relative="1" as="geometry">
            <Array as="points">
              <mxPoint x="569.5" y="395" />
            </Array>
          </mxGeometry>
        </mxCell>
        <mxCell id="Rtw2Mw8w-L1hEYjC5oc2-10" value="&lt;font style=&quot;font-size: 18px;&quot;&gt;Nginx&lt;/font&gt;" style="rounded=0;whiteSpace=wrap;html=1;" parent="1" vertex="1">
          <mxGeometry x="223.5" y="335" width="388" height="60" as="geometry" />
        </mxCell>
        <mxCell id="MLBCKs6qhWt3k2Kgl3a6-15" style="edgeStyle=orthogonalEdgeStyle;rounded=0;orthogonalLoop=1;jettySize=auto;html=1;exitX=0.5;exitY=1;exitDx=0;exitDy=0;entryX=0.75;entryY=0;entryDx=0;entryDy=0;" edge="1" parent="1" source="Rtw2Mw8w-L1hEYjC5oc2-11" target="Rtw2Mw8w-L1hEYjC5oc2-22">
          <mxGeometry relative="1" as="geometry" />
        </mxCell>
        <mxCell id="Rtw2Mw8w-L1hEYjC5oc2-11" value="&lt;font style=&quot;font-size: 18px;&quot;&gt;RESTful API Server&lt;/font&gt;" style="rounded=0;whiteSpace=wrap;html=1;" parent="1" vertex="1">
          <mxGeometry x="434.5" y="428" width="180" height="60" as="geometry" />
        </mxCell>
        <mxCell id="MLBCKs6qhWt3k2Kgl3a6-16" style="edgeStyle=orthogonalEdgeStyle;rounded=0;orthogonalLoop=1;jettySize=auto;html=1;exitX=0.5;exitY=1;exitDx=0;exitDy=0;entryX=0.25;entryY=0;entryDx=0;entryDy=0;" edge="1" parent="1" source="Rtw2Mw8w-L1hEYjC5oc2-12" target="Rtw2Mw8w-L1hEYjC5oc2-22">
          <mxGeometry relative="1" as="geometry" />
        </mxCell>
        <mxCell id="Rtw2Mw8w-L1hEYjC5oc2-12" value="&lt;font style=&quot;font-size: 18px;&quot;&gt;AI Server&lt;/font&gt;" style="rounded=0;whiteSpace=wrap;html=1;" parent="1" vertex="1">
          <mxGeometry x="223.5" y="428" width="180" height="60" as="geometry" />
        </mxCell>
        <mxCell id="MLBCKs6qhWt3k2Kgl3a6-19" style="edgeStyle=orthogonalEdgeStyle;rounded=0;orthogonalLoop=1;jettySize=auto;html=1;entryX=0.75;entryY=1;entryDx=0;entryDy=0;" edge="1" parent="1" source="Rtw2Mw8w-L1hEYjC5oc2-22" target="Rtw2Mw8w-L1hEYjC5oc2-12">
          <mxGeometry relative="1" as="geometry">
            <Array as="points">
              <mxPoint x="358.5" y="510" />
              <mxPoint x="358.5" y="510" />
            </Array>
          </mxGeometry>
        </mxCell>
        <mxCell id="MLBCKs6qhWt3k2Kgl3a6-20" style="edgeStyle=orthogonalEdgeStyle;rounded=0;orthogonalLoop=1;jettySize=auto;html=1;entryX=0.25;entryY=1;entryDx=0;entryDy=0;" edge="1" parent="1" source="Rtw2Mw8w-L1hEYjC5oc2-22" target="Rtw2Mw8w-L1hEYjC5oc2-11">
          <mxGeometry relative="1" as="geometry">
            <Array as="points">
              <mxPoint x="479.5" y="508" />
              <mxPoint x="479.5" y="508" />
            </Array>
          </mxGeometry>
        </mxCell>
        <mxCell id="Rtw2Mw8w-L1hEYjC5oc2-22" value="&lt;span style=&quot;font-size: 20px;&quot;&gt;PostgreSQL&lt;/span&gt;" style="rounded=0;whiteSpace=wrap;html=1;" parent="1" vertex="1">
          <mxGeometry x="223.5" y="521" width="391" height="74" as="geometry" />
        </mxCell>
        <mxCell id="MLBCKs6qhWt3k2Kgl3a6-6" style="edgeStyle=orthogonalEdgeStyle;rounded=0;orthogonalLoop=1;jettySize=auto;html=1;exitX=0.75;exitY=0;exitDx=0;exitDy=0;entryX=0.335;entryY=0.967;entryDx=0;entryDy=0;entryPerimeter=0;" edge="1" parent="1" source="Rtw2Mw8w-L1hEYjC5oc2-12" target="Rtw2Mw8w-L1hEYjC5oc2-10">
          <mxGeometry relative="1" as="geometry" />
        </mxCell>
        <mxCell id="MLBCKs6qhWt3k2Kgl3a6-10" style="edgeStyle=orthogonalEdgeStyle;rounded=0;orthogonalLoop=1;jettySize=auto;html=1;exitX=0.25;exitY=0;exitDx=0;exitDy=0;entryX=0.67;entryY=0.967;entryDx=0;entryDy=0;entryPerimeter=0;" edge="1" parent="1" source="Rtw2Mw8w-L1hEYjC5oc2-11" target="Rtw2Mw8w-L1hEYjC5oc2-10">
          <mxGeometry relative="1" as="geometry" />
        </mxCell>
        <mxCell id="MLBCKs6qhWt3k2Kgl3a6-25" value="&lt;font style=&quot;font-size: 24px;&quot;&gt;Electron&lt;/font&gt;" style="rounded=0;whiteSpace=wrap;html=1;" vertex="1" parent="1">
          <mxGeometry x="95" y="82" width="308.5" height="60" as="geometry" />
        </mxCell>
        <mxCell id="MLBCKs6qhWt3k2Kgl3a6-26" value="&lt;font style=&quot;font-size: 25px;&quot;&gt;Web&lt;/font&gt;" style="rounded=0;whiteSpace=wrap;html=1;" vertex="1" parent="1">
          <mxGeometry x="425.5" y="82" width="312" height="60" as="geometry" />
        </mxCell>
      </root>
    </mxGraphModel>
  </diagram>
</mxfile>
